<?xml version="1.0" encoding="utf-8"?>
<svg viewBox="0 0 500 500" xmlns="http://www.w3.org/2000/svg">
  <defs>
    <style id="bx-google-fonts">@import url(https://fonts.googleapis.com/css?family=Roboto:100,300,500,700,900,100italic,300italic,400,400italic,500italic,700italic,900italic);</style>
  </defs>
  <path stroke="none" fill="#E2A010" d="M 227.343 73.064 L 227.343 59.541 L 272.563 59.541 L 272.563 73.064 L 227.343 73.064" style="stroke-width: 3.844;"/>
  <path stroke="none" fill="#3A67A8" d="M 227.343 73.064 L 180.745 73.064 L 180.745 59.541 L 227.343 59.541 L 227.343 73.064 M 272.563 73.064 L 272.563 59.541 L 319.357 59.541 L 319.357 73.064 L 272.563 73.064" style="stroke-width: 3.844;"/>
  <path stroke="none" fill="#4E84D3" d="M 272.563 73.064 L 319.357 73.064 L 319.357 165.461 L 272.563 210.158 L 272.563 73.064 M 180.745 73.064 L 227.343 73.064 L 227.343 210.158 L 180.745 165.461 L 180.745 73.064" style="stroke-width: 3.844;"/>
  <path stroke="none" fill="#FFCC00" d="M 272.563 59.541 L 227.343 59.541 L 180.745 59.541 L 172.094 59.541 L 172.094 51.278 L 328.009 51.278 L 328.009 59.541 L 319.357 59.541 L 272.563 59.541" style="stroke-width: 3.844;"/>
  <path stroke="none" fill="#F2A90C" d="M 227.343 73.064 L 272.563 73.064 L 272.563 210.158 L 227.343 210.158 L 227.343 73.064" style="stroke-width: 3.844;"/>
  <path stroke="none" fill="#C7A006" d="M 271.778 237.014 C 265.744 231.256 258.666 228.439 250.542 228.563 C 241.629 228.439 234.156 231.256 228.129 237.014 C 222.096 242.772 219.084 249.784 219.084 258.048 C 219.084 266.188 222.096 273.136 228.129 278.894 C 234.156 284.651 241.629 287.533 250.542 287.533 C 258.666 287.533 265.744 284.651 271.778 278.894 C 278.069 273.136 281.215 266.188 281.215 258.048 C 281.215 249.784 278.069 242.772 271.778 237.014 M 211.417 258.048 C 211.417 247.655 215.152 238.956 222.623 231.944 C 230.225 224.683 239.533 221.115 250.542 221.239 C 260.897 221.115 269.874 224.683 277.479 231.944 C 285.08 238.956 288.945 247.655 289.079 258.048 C 288.945 268.314 285.08 277.079 277.479 284.34 C 269.874 291.6 260.897 295.233 250.542 295.233 C 239.533 295.233 230.225 291.6 222.623 284.34 C 215.152 277.079 211.417 268.314 211.417 258.048" style="stroke-width: 3.844;"/>
  <path stroke="none" fill="#E5B90A" d="M 271.778 237.014 C 278.069 242.772 281.215 249.784 281.215 258.048 C 281.215 266.188 278.069 273.136 271.778 278.894 C 265.744 284.651 258.666 287.533 250.542 287.533 C 241.629 287.533 234.156 284.651 228.129 278.894 C 222.096 273.136 219.084 266.188 219.084 258.048 C 219.084 249.784 222.096 242.772 228.129 237.014 C 234.156 231.256 241.629 228.439 250.542 228.563 C 258.666 228.439 265.744 231.256 271.778 237.014" style="stroke-width: 3.844;"/>
  <path stroke="none" fill="#C09A04" d="M 201.586 258.048 C 201.586 270.943 206.305 281.899 215.743 290.914 C 225.309 299.928 236.909 304.435 250.542 304.435 C 263.519 304.435 274.789 299.928 284.36 290.914 C 293.798 281.899 298.579 270.943 298.713 258.048 C 298.579 245.154 293.798 234.261 284.36 225.37 C 274.789 216.356 263.519 211.913 250.542 212.036 C 236.909 211.913 225.309 216.356 215.743 225.37 C 206.305 234.261 201.586 245.154 201.586 258.048 M 319.554 258.048 C 319.554 276.452 312.735 292.104 299.106 304.999 C 285.736 317.769 269.547 324.154 250.542 324.154 C 231.275 324.154 214.822 317.769 201.193 304.999 C 187.689 292.104 180.942 276.452 180.942 258.048 C 180.942 239.895 187.689 224.307 201.193 211.285 C 214.822 198.39 231.275 191.941 250.542 191.941 C 269.547 191.941 285.736 198.39 299.106 211.285 C 312.735 224.307 319.554 239.895 319.554 258.048" style="stroke-width: 3.844;"/>
  <path stroke="none" fill="#DEB307" d="M 211.417 258.048 C 211.417 268.314 215.152 277.079 222.623 284.34 C 230.225 291.6 239.533 295.233 250.542 295.233 C 260.897 295.233 269.874 291.6 277.479 284.34 C 285.08 277.079 288.945 268.314 289.079 258.048 C 288.945 247.655 285.08 238.956 277.479 231.944 C 269.874 224.683 260.897 221.115 250.542 221.239 C 239.533 221.115 230.225 224.683 222.623 231.944 C 215.152 238.956 211.417 247.655 211.417 258.048 M 201.586 258.048 C 201.586 245.154 206.305 234.261 215.743 225.37 C 225.309 216.356 236.909 211.913 250.542 212.036 C 263.519 211.913 274.789 216.356 284.36 225.37 C 293.798 234.261 298.579 245.154 298.713 258.048 C 298.579 270.943 293.798 281.899 284.36 290.914 C 274.789 299.928 263.519 304.435 250.542 304.435 C 236.909 304.435 225.309 299.928 215.743 290.914 C 206.305 281.899 201.586 270.943 201.586 258.048" style="stroke-width: 3.844;"/>
  <text x="207.968" y="452.137" style="font-size: 36; font-family: Roboto; white-space: pre;" transform="matrix(0.818927, 0, 0, 1.20111, -70.100586, -162.268448)">UFOreo Track Completed</text>
  <defs>
    <style id="bx-google-fonts">@import url(https://fonts.googleapis.com/css?family=Roboto:100,100italic,300,300italic,400,400italic,500,500italic,700,700italic,900,900italic);</style>
  </defs>
  <text x="207.968" y="452.137" style="font-size: 36; font-family: Roboto; white-space: pre;" transform="matrix(0.818927, 0, 0, 1.20111, -38.546276, -101.402069)">(Time Limit Mode)</text>
</svg>